<svg width="261" height="260" viewBox="0 0 261 260" fill="none" xmlns="http://www.w3.org/2000/svg">
<path d="M130.096 212.624C175.815 212.624 212.878 175.561 212.878 129.841C212.878 84.1219 175.815 47.0588 130.096 47.0588C84.3763 47.0588 47.3132 84.1219 47.3132 129.841C47.3132 175.561 84.3763 212.624 130.096 212.624Z" fill="white"/>
<path d="M212.879 129.841C212.879 175.563 175.817 212.625 130.096 212.625C127.961 212.625 125.847 212.544 123.759 212.386C166.507 209.134 200.175 173.418 200.175 129.841C200.175 86.2645 166.507 50.5491 123.759 47.2967C125.847 47.1392 127.961 47.0579 130.096 47.0579C175.817 47.0579 212.879 84.1199 212.879 129.841Z" fill="#D8ECFE"/>
<path d="M130.096 29.2206C137.112 29.2206 142.8 23.5325 142.8 16.5159C142.8 9.49935 137.112 3.81128 130.096 3.81128C123.079 3.81128 117.391 9.49935 117.391 16.5159C117.391 23.5325 123.079 29.2206 130.096 29.2206Z" fill="#FEDF30"/>
<path d="M142.8 16.5159C142.8 23.534 137.114 29.2206 130.096 29.2206C128.292 29.2206 126.569 28.8446 125.014 28.1585C129.501 26.202 132.637 21.7249 132.637 16.5159C132.637 11.307 129.501 6.82991 125.014 4.87339C126.569 4.18734 128.292 3.81128 130.096 3.81128C137.114 3.81128 142.8 9.49789 142.8 16.5159Z" fill="#FAC600"/>
<path d="M130.096 256.126C137.112 256.126 142.8 250.438 142.8 243.421C142.8 236.405 137.112 230.717 130.096 230.717C123.079 230.717 117.391 236.405 117.391 243.421C117.391 250.438 123.079 256.126 130.096 256.126Z" fill="#FEDF30"/>
<path d="M142.8 243.421C142.8 250.44 137.114 256.126 130.096 256.126C128.292 256.126 126.569 255.75 125.014 255.064C129.501 253.108 132.637 248.63 132.637 243.421C132.637 238.213 129.501 233.735 125.014 231.779C126.569 231.093 128.292 230.717 130.096 230.717C137.114 230.717 142.8 236.403 142.8 243.421Z" fill="#FAC600"/>
<path d="M16.5161 142.546C23.5327 142.546 29.2207 136.858 29.2207 129.842C29.2207 122.825 23.5327 117.137 16.5161 117.137C9.49948 117.137 3.8114 122.825 3.8114 129.842C3.8114 136.858 9.49948 142.546 16.5161 142.546Z" fill="#FEDF30"/>
<path d="M29.2207 129.842C29.2207 136.86 23.5341 142.546 16.5161 142.546C14.712 142.546 12.9893 142.17 11.4342 141.484C15.9215 139.528 19.057 135.051 19.057 129.842C19.057 124.633 15.9215 120.156 11.4342 118.199C12.9893 117.513 14.712 117.137 16.5161 117.137C23.5341 117.137 29.2207 122.824 29.2207 129.842Z" fill="#FAC600"/>
<path d="M243.675 142.546C250.692 142.546 256.38 136.858 256.38 129.842C256.38 122.825 250.692 117.137 243.675 117.137C236.659 117.137 230.971 122.825 230.971 129.842C230.971 136.858 236.659 142.546 243.675 142.546Z" fill="#FEDF30"/>
<path d="M256.38 129.842C256.38 136.86 250.694 142.546 243.675 142.546C241.871 142.546 240.149 142.17 238.594 141.484C243.081 139.528 246.216 135.051 246.216 129.842C246.216 124.633 243.081 120.156 238.594 118.199C240.149 117.513 241.871 117.137 243.675 117.137C250.694 117.137 256.38 122.824 256.38 129.842Z" fill="#FAC600"/>
<path d="M43.9242 61.4564C53.7474 61.4564 61.7107 53.4931 61.7107 43.6698C61.7107 33.8466 53.7474 25.8833 43.9242 25.8833C34.1009 25.8833 26.1376 33.8466 26.1376 43.6698C26.1376 53.4931 34.1009 61.4564 43.9242 61.4564Z" fill="#FEDF30"/>
<path d="M61.7091 43.6684C61.7091 53.4916 53.7458 61.4549 43.9225 61.4549C41.8746 61.4549 39.9079 61.1093 38.0784 60.4741C45.0304 58.0551 50.0208 51.4436 50.0208 43.6684C50.0208 35.8931 45.0304 29.2816 38.0784 26.8626C39.9079 26.2274 41.8746 25.8818 43.9225 25.8818C53.7458 25.8818 61.7091 33.8451 61.7091 43.6684Z" fill="#FAC600"/>
<path d="M216.267 233.8C226.091 233.8 234.054 225.837 234.054 216.014C234.054 206.19 226.091 198.227 216.267 198.227C206.444 198.227 198.481 206.19 198.481 216.014C198.481 225.837 206.444 233.8 216.267 233.8Z" fill="#FEDF30"/>
<path d="M234.054 216.014C234.054 225.837 226.091 233.8 216.267 233.8C214.219 233.8 212.253 233.455 210.423 232.819C217.375 230.4 222.366 223.789 222.366 216.014C222.366 208.238 217.375 201.627 210.423 199.208C212.253 198.573 214.219 198.227 216.267 198.227C226.091 198.227 234.054 206.19 234.054 216.014Z" fill="#FAC600"/>
<path d="M216.267 61.4564C226.091 61.4564 234.054 53.4931 234.054 43.6698C234.054 33.8466 226.091 25.8833 216.267 25.8833C206.444 25.8833 198.481 33.8466 198.481 43.6698C198.481 53.4931 206.444 61.4564 216.267 61.4564Z" fill="#FEDF30"/>
<path d="M234.054 43.6698C234.054 53.4931 226.091 61.4564 216.267 61.4564C214.219 61.4564 212.253 61.1108 210.423 60.4756C217.375 58.0566 222.366 51.4451 222.366 43.6698C222.366 35.8946 217.375 29.2831 210.423 26.8641C212.253 26.2289 214.219 25.8833 216.267 25.8833C226.091 25.8833 234.054 33.8466 234.054 43.6698Z" fill="#FAC600"/>
<path d="M43.9242 233.8C53.7474 233.8 61.7107 225.837 61.7107 216.014C61.7107 206.19 53.7474 198.227 43.9242 198.227C34.1009 198.227 26.1376 206.19 26.1376 216.014C26.1376 225.837 34.1009 233.8 43.9242 233.8Z" fill="#FEDF30"/>
<path d="M61.7107 216.014C61.7107 225.837 53.7474 233.8 43.9242 233.8C41.8762 233.8 39.9095 233.455 38.08 232.819C45.032 230.4 50.0224 223.789 50.0224 216.014C50.0224 208.238 45.032 201.627 38.08 199.208C39.9095 198.573 41.8762 198.227 43.9242 198.227C53.7474 198.227 61.7107 206.19 61.7107 216.014Z" fill="#FAC600"/>
<path d="M145.961 207.219C60.805 223.313 14.9885 112.69 86.564 63.9424C88.3193 62.7806 88.8005 60.4161 87.6393 58.6603C86.4771 56.905 84.1125 56.4232 82.3572 57.5849C78.5265 60.1198 74.9398 62.9265 71.6132 65.9685L61.642 55.9974C71.6248 42.0512 61.203 21.9052 43.9231 22.0713C32.0142 22.0713 22.3257 31.7599 22.3257 43.6693C22.1615 60.9486 42.305 71.372 56.2517 61.3877L66.2203 71.3568C52.5892 86.2228 44.4892 105.492 43.5933 126.03H32.5834C27.7216 107.229 0.468548 110.228 0 129.842C0.470581 149.46 27.7251 152.451 32.5834 133.653H43.5892C44.5039 154.66 52.9353 173.748 66.2584 188.289L56.2522 198.295C42.306 188.312 22.16 198.734 22.3262 216.014C22.3262 227.923 32.0147 237.611 43.9241 237.611C61.2035 237.775 71.6269 217.632 61.6425 203.685L71.6487 193.679C86.1885 207.002 105.277 215.433 126.284 216.348V227.354C107.483 232.216 110.482 259.469 130.096 259.937C149.713 259.467 152.705 232.212 133.907 227.354V216.348C138.485 216.149 143.038 215.596 147.486 214.687C149.549 214.266 150.88 212.253 150.458 210.19C150.037 208.129 148.021 206.799 145.961 207.219ZM29.949 43.6698C29.949 35.9641 36.2185 29.6946 43.9241 29.6946C62.4384 30.3975 62.4333 56.9446 43.9241 57.6449C36.2185 57.6449 29.949 51.3754 29.949 43.6698ZM16.5161 138.735C11.6126 138.735 7.6228 134.745 7.6228 129.841C8.07 118.06 24.9642 118.063 25.4093 129.841C25.4093 134.745 21.4196 138.735 16.5161 138.735ZM43.9241 229.988C36.2185 229.988 29.949 223.719 29.949 216.013C30.6518 197.499 57.199 197.504 57.8992 216.013C57.8992 223.719 51.6297 229.988 43.9241 229.988ZM138.989 243.421C138.989 248.325 134.999 252.314 130.096 252.314C118.314 251.867 118.317 234.973 130.096 234.528C134.999 234.528 138.989 238.518 138.989 243.421Z" fill="black"/>
<path d="M243.676 113.326C235.88 113.326 229.334 118.756 227.608 126.03H216.602C215.688 105.023 207.256 85.9349 193.933 71.3946L203.939 61.3884C217.886 71.3713 238.032 60.9494 237.865 43.6695C237.865 31.7607 228.177 22.0721 216.267 22.0721C198.988 21.9079 188.565 42.0514 198.549 55.9981L188.543 66.0043C174.003 52.6812 154.915 44.2498 133.907 43.3351V32.5834C152.709 27.7216 149.71 0.468548 130.096 0C110.478 0.470581 107.487 27.7251 126.284 32.5834V43.3305C116.869 43.7371 107.675 45.6499 98.9028 49.0365C96.9391 49.7947 95.9619 52.0012 96.7196 53.9649C97.4778 55.9285 99.6839 56.9067 101.648 56.148C152.194 35.8322 209.842 75.2924 209.067 129.842C209.068 161.017 190.659 189.352 162.168 202.028C160.245 202.884 159.38 205.137 160.235 207.06C161.092 209.003 163.389 209.841 165.266 208.993C173.956 205.127 181.79 199.93 188.572 193.709L198.549 203.685C188.566 217.631 198.988 237.777 216.267 237.611C228.176 237.611 237.865 227.922 237.865 216.013C238.029 198.734 217.886 188.31 203.939 198.294L193.958 188.313C207.466 173.537 215.696 154.267 216.603 133.653H227.607C232.471 152.457 259.722 149.453 260.191 129.841C260.192 120.734 252.783 113.326 243.676 113.326ZM216.267 29.6949C223.973 29.6949 230.243 35.9644 230.243 43.67C229.54 62.1843 202.993 62.1792 202.292 43.67C202.292 35.9644 208.562 29.6949 216.267 29.6949ZM121.203 16.5161C121.203 11.6126 125.192 7.6228 130.096 7.6228C141.878 8.07 141.875 24.9642 130.096 25.4093C125.192 25.4093 121.203 21.4196 121.203 16.5161ZM230.243 216.013C230.243 223.719 223.973 229.989 216.267 229.989C197.753 229.286 197.758 202.739 216.267 202.038C223.973 202.038 230.243 208.308 230.243 216.013ZM243.676 138.735C238.772 138.735 234.782 134.745 234.782 129.842C235.229 118.06 252.124 118.063 252.569 129.842C252.569 134.745 248.579 138.735 243.676 138.735Z" fill="black"/>
<path d="M78 100C82.5408 147.739 98.4335 170.558 105.812 176C106.38 174.874 108.764 170.258 113.759 160.8C120.002 148.978 123.975 133.778 105.812 129.837C91.2818 126.684 81.2164 108.632 78 100Z" fill="#F37021"/>
<path d="M138.558 108.91L108 177H140.256L181 85.0786C157.912 83.7168 143.085 100.399 138.558 108.91Z" fill="#005BAA"/>
</svg>
