<svg width="103" height="180" viewBox="0 0 103 180" fill="none" xmlns="http://www.w3.org/2000/svg">
<path d="M51.7464 180C23.1229 180 0.701248 167.172 0.701248 150.796C0.701248 143.561 5.18191 136.674 13.3178 131.402C20.7867 126.562 31.0833 123.251 42.3104 122.078C44.2395 121.875 45.9705 123.279 46.172 125.21C46.3738 127.141 44.9718 128.87 43.0406 129.071C22.9116 131.174 7.7325 140.513 7.7325 150.796C7.7325 162.815 27.8883 172.969 51.7464 172.969C75.6045 172.969 95.7602 162.815 95.7602 150.796C95.7602 140.415 80.4142 131.058 60.0633 129.032C58.1315 128.84 56.721 127.117 56.9133 125.185C57.1056 123.254 58.8188 121.841 60.7601 122.035C72.0829 123.163 82.48 126.457 90.0361 131.312C98.2612 136.598 102.791 143.517 102.791 150.796C102.791 167.172 80.3699 180 51.7464 180Z" fill="#F37021"/>
<path d="M83.542 103.214H19.9507V57.712C19.9507 50.6797 25.6516 44.9788 32.684 44.9788H70.8088C77.8411 44.9788 83.542 50.6797 83.542 57.712V103.214Z" fill="#005BAA"/>
<path d="M63.6348 154.821H39.8579L29.6714 103.214H73.8213L63.6348 154.821Z" fill="#005BAA"/>
<path d="M51.7464 48.4938C38.3764 48.4938 27.4995 37.6168 27.4995 24.2469C27.4995 10.877 38.3764 0 51.7464 0C65.1159 0 75.9933 10.877 75.9933 24.2469C75.9933 37.6168 65.1159 48.4938 51.7464 48.4938ZM51.7464 7.03125C42.2535 7.03125 34.5307 14.754 34.5307 24.2469C34.5307 33.7398 42.2535 41.4626 51.7464 41.4626C61.2389 41.4626 68.962 33.7398 68.962 24.2469C68.962 14.754 61.2389 7.03125 51.7464 7.03125Z" fill="#005BAA"/>
</svg>
