<svg width="58" height="128" viewBox="0 0 58 128" fill="none" xmlns="http://www.w3.org/2000/svg">
<path d="M29 103.625V126.125C43.9808 126.125 56.125 121.088 56.125 114.875C56.125 108.662 43.9808 103.625 29 103.625Z" fill="#DB5403"/>
<path d="M48.625 114.875C48.625 108.662 39.8385 103.625 29 103.625C14.0192 103.625 1.875 108.662 1.875 114.875C1.875 121.088 14.0192 126.125 29 126.125C39.8385 126.125 48.625 121.088 48.625 114.875Z" fill="#F37021"/>
<path d="M42.125 31.875H34.625V39.375L42.125 71.125C42.125 73.196 43.804 74.875 45.875 74.875C47.946 74.875 49.625 73.196 49.625 71.125V39.375C49.625 35.25 46.25 31.875 42.125 31.875Z" fill="#034A89"/>
<path d="M15.875 31.875C11.75 31.875 8.375 35.25 8.375 39.375V71.125C8.375 73.196 10.054 74.875 12.125 74.875C14.196 74.875 15.875 73.196 15.875 71.125L23.375 39.375V31.875H15.875Z" fill="#5F9ED4"/>
<path d="M28.9178 1.875V24.375C35.131 24.375 40.1677 19.3383 40.1677 13.125C40.1677 6.91175 35.131 1.875 28.9178 1.875Z" fill="#FFA886"/>
<path d="M32.6677 13.125C32.6677 6.91175 30.9888 1.875 28.9178 1.875C22.7045 1.875 17.6678 6.91175 17.6678 13.125C17.6678 19.3383 22.7045 24.375 28.9178 24.375C30.9888 24.375 32.6677 19.3383 32.6677 13.125Z" fill="#FFCAA2"/>
<path d="M34.625 31.875H23.375C19.25 31.875 15.875 35.25 15.875 39.375V113.188C15.875 115.776 17.9738 117.875 20.5625 117.875C23.1512 117.875 25.25 115.776 25.25 113.188V71.125H32.75V113.188C32.75 115.776 34.8488 117.875 37.4375 117.875C40.0262 117.875 42.125 115.776 42.125 113.188V39.375C42.125 35.25 38.75 31.875 34.625 31.875Z" fill="#005BAA"/>
<path d="M44 103.561V76.4275C44.5867 76.6357 45.2178 76.75 45.875 76.75C48.9765 76.75 51.5 74.2265 51.5 71.125V39.375C51.5 34.2055 47.2945 30 42.125 30H15.875C10.7055 30 6.5 34.2055 6.5 39.375V71.125C6.5 74.2265 9.02325 76.75 12.125 76.75C12.7822 76.75 13.4133 76.6355 14 76.4275V113.188C14 116.806 16.944 119.75 20.5625 119.75C24.181 119.75 27.125 116.806 27.125 113.188V105.529C28.3733 105.492 29.627 105.492 30.875 105.529V113.188C30.875 116.806 33.8187 119.75 37.4375 119.75C41.0563 119.75 44 116.806 44 113.188V107.452C50.2172 109.261 54.25 112.128 54.25 114.875C54.25 119.309 43.8802 124.25 29 124.25C14.1198 124.25 3.75 119.309 3.75 114.875C3.75 112.982 5.734 110.934 9.19325 109.256C10.125 108.804 10.5137 107.682 10.0617 106.751C9.60975 105.819 8.4885 105.43 7.5565 105.882C1.311 108.912 0 112.445 0 114.875C0 118.688 3.23225 122.128 9.1015 124.562C14.4473 126.779 21.514 128 29 128C36.486 128 43.553 126.779 48.8988 124.562C54.7678 122.128 58 118.688 58 114.875C58 110.049 52.797 105.875 44 103.561ZM30.875 101.777C29.6265 101.743 28.3733 101.743 27.125 101.777V73H30.875V101.777ZM42.125 37.5C41.0892 37.5 40.25 38.3392 40.25 39.375V113.188C40.25 114.738 38.9883 116 37.4375 116C35.8867 116 34.625 114.738 34.625 113.188V71.125C34.625 70.0892 33.7858 69.25 32.75 69.25H25.25C24.2145 69.25 23.375 70.0892 23.375 71.125V113.188C23.375 114.738 22.1133 116 20.5625 116C19.0117 116 17.75 114.738 17.75 113.188V39.375C17.75 38.3392 16.9105 37.5 15.875 37.5C14.8395 37.5 14 38.3392 14 39.375V71.125C14 72.159 13.159 73 12.125 73C11.091 73 10.25 72.159 10.25 71.125V39.375C10.25 36.2735 12.7733 33.75 15.875 33.75H42.125C45.2265 33.75 47.75 36.2735 47.75 39.375V71.125C47.75 72.159 46.909 73 45.875 73C44.841 73 44 72.159 44 71.125V39.375C44 38.3392 43.1608 37.5 42.125 37.5Z" fill="black"/>
<path d="M28.9178 26.25C36.1548 26.25 42.0427 20.362 42.0427 13.125C42.0427 5.888 36.1548 0 28.9178 0C21.6805 0 15.7928 5.888 15.7928 13.125C15.7928 20.362 21.6805 26.25 28.9178 26.25ZM28.9178 3.75C34.0873 3.75 38.2927 7.9555 38.2927 13.125C38.2927 18.2945 34.0873 22.5 28.9178 22.5C23.7483 22.5 19.5428 18.2945 19.5428 13.125C19.5428 7.9555 23.7483 3.75 28.9178 3.75Z" fill="black"/>
</svg>
